# xmcd CD database file generated by Grip 3.3.1
# 
# Track frame offsets:
#       150
#       26430
#       44225
#       62650
#       76855
#       88575
#       100907
#       117575
#       136910
#       154217
# 
# Disc length: 2351 seconds
# 
# Revision: 1
# Processed by: cddbd v1.5.2PL0 Copyright (c) Steve Scherf et al.
# Submitted via: Grip 3.3.1
# 
DISCID=81092d0a
DTITLE=Peregrinos y Extranjeros - ...¡Buscando aquélla Ciudad!
DYEAR=1985
DGENRE=Other
TTITLE0=Subiremos a Jerusalén
TTITLE1=He Aqui Yo Estoy
TTITLE2=El Mismo No Seré
TTITLE3=Amor Verdadero
TTITLE4=Bendito Dios Mi Roca
TTITLE5=Jehová, Tu Mano Está Alzada
TTITLE6=Mi Amor Por Tí
TTITLE7=No Tardará
TTITLE8=Sígueme
TTITLE9=Alzaré Mi Ojos A los Montes
EXTD=
EXTT0=
EXTT1=
EXTT2=
EXTT3=
EXTT4=
EXTT5=
EXTT6=
EXTT7=
EXTT8=
EXTT9=
PLAYORDER=
